<svg xmlns="http://www.w3.org/2000/svg" width="1161" height="798">
 <!-- Created with Image Occlusion Enhanced -->
 <g>
  <title>Labels</title>
 </g>
 <g>
  <title>Masks</title>
  <rect id="056b61c3e4e74b0bb8cdef970f6f1949-oa-1" height="67" width="125" y="32" x="3" stroke="#2D2D2D" fill="#FFEBA2"/>
  
  <rect id="056b61c3e4e74b0bb8cdef970f6f1949-oa-2" height="65" width="124" y="185" x="5" stroke="#2D2D2D" fill="#FFEBA2"/>
  <rect id="056b61c3e4e74b0bb8cdef970f6f1949-oa-3" height="63" width="125" y="109" x="4" stroke="#2D2D2D" fill="#FFEBA2"/>
  <rect id="056b61c3e4e74b0bb8cdef970f6f1949-oa-4" height="59" width="119" y="260" x="5" stroke="#2D2D2D" fill="#FFEBA2"/>
  <rect id="056b61c3e4e74b0bb8cdef970f6f1949-oa-5" height="65" width="125" y="371" x="5" stroke="#2D2D2D" fill="#FFEBA2"/>
  <rect id="056b61c3e4e74b0bb8cdef970f6f1949-oa-6" height="45" width="118" y="448" x="9" stroke="#2D2D2D" fill="#FFEBA2"/>
  <rect id="056b61c3e4e74b0bb8cdef970f6f1949-oa-7" height="55" width="120" y="503" x="7" stroke="#2D2D2D" fill="#FFEBA2"/>
  <rect id="056b61c3e4e74b0bb8cdef970f6f1949-oa-8" height="49" width="121" y="579" x="5" stroke="#2D2D2D" fill="#FFEBA2"/>
  <rect id="056b61c3e4e74b0bb8cdef970f6f1949-oa-9" height="21" width="122" y="689" x="3" stroke="#2D2D2D" fill="#FFEBA2"/>
  <rect id="056b61c3e4e74b0bb8cdef970f6f1949-oa-10" height="97" width="193" y="691" x="962" stroke="#2D2D2D" fill="#FFEBA2"/>
  <rect id="056b61c3e4e74b0bb8cdef970f6f1949-oa-11" height="98" width="191" y="691" x="550" stroke="#2D2D2D" fill="#FFEBA2"/>
  <rect id="056b61c3e4e74b0bb8cdef970f6f1949-oa-12" height="24" width="163" y="107" x="141" stroke="#2D2D2D" fill="#FFEBA2"/>
  <rect id="056b61c3e4e74b0bb8cdef970f6f1949-oa-13" height="27" width="185" y="182" x="141" stroke="#2D2D2D" fill="#FFEBA2"/>
  <rect id="056b61c3e4e74b0bb8cdef970f6f1949-oa-14" height="22" width="187" y="447" x="143" stroke="#2D2D2D" fill="#FFEBA2"/>
  <rect id="056b61c3e4e74b0bb8cdef970f6f1949-oa-15" height="63" width="188" y="369" x="760" stroke="#2D2D2D" fill="#FFEBA2"/>
  <rect id="056b61c3e4e74b0bb8cdef970f6f1949-oa-16" height="65" width="196" y="499" x="342" stroke="#2D2D2D" fill="#FFEBA2"/>
  <rect id="056b61c3e4e74b0bb8cdef970f6f1949-oa-17" height="96" width="191" y="694" x="141" stroke="#2D2D2D" fill="#FFEBA2"/>
 </g>
</svg>