<svg xmlns="http://www.w3.org/2000/svg" width="984" height="799">
 <!-- Created with Image Occlusion Enhanced -->
 <g>
  <title>Labels</title>
 </g>
 <g>
  <title>Masks</title>
  <g id="27c2ae11256e437f8527f00f0533c433-oa-1">
   <rect height="38" width="194" y="57" x="29" stroke="#2D2D2D" fill="#FFEBA2"/>
   <rect height="81" width="197" y="62" x="513" stroke="#2D2D2D" fill="#FFEBA2"/>
   <rect height="60" width="194" y="50" x="759" stroke="#2D2D2D" fill="#FFEBA2"/>
   <rect height="28" width="214" y="115" x="751" stroke="#2D2D2D" fill="#FFEBA2"/>
  </g>
  <g id="27c2ae11256e437f8527f00f0533c433-oa-2">
   <rect height="41" width="193" y="153" x="28" stroke="#2D2D2D" fill="#FFEBA2"/>
   <rect height="90" width="213" y="161" x="506" stroke="#2D2D2D" fill="#FFEBA2"/>
   <g>
    <rect height="48" width="179" y="158" x="763" stroke="#2D2D2D" fill="#FFEBA2"/>
    <rect height="46" width="156" y="218" x="804" stroke="#2D2D2D" fill="#FFEBA2"/>
    <rect height="28" width="33" y="214" x="750" stroke="#2D2D2D" fill="#FFEBA2"/>
   </g>
  </g>
  <g id="27c2ae11256e437f8527f00f0533c433-oa-3">
   <rect stroke="#2D2D2D" height="56" width="194" y="449" x="29" stroke-linecap="null" stroke-linejoin="null" stroke-dasharray="null" fill="#FFEBA2"/>
   <rect height="59" width="223" y="452" x="504" stroke-linecap="null" stroke-linejoin="null" stroke-dasharray="null" stroke="#2D2D2D" fill="#FFEBA2"/>
   <rect height="23" width="210" y="451" x="752" stroke-linecap="null" stroke-linejoin="null" stroke-dasharray="null" stroke="#2D2D2D" fill="#FFEBA2"/>
   <rect height="24" width="76" y="483" x="812" stroke-linecap="null" stroke-linejoin="null" stroke-dasharray="null" stroke="#2D2D2D" fill="#FFEBA2"/>
  </g>
  <g id="27c2ae11256e437f8527f00f0533c433-oa-4">
   <rect height="25" width="166" y="554" x="44" stroke-linecap="null" stroke-linejoin="null" stroke-dasharray="null" stroke="#2D2D2D" fill="#FFEBA2"/>
   <rect height="35" width="183" y="546" x="519" stroke-linecap="null" stroke-linejoin="null" stroke-dasharray="null" stroke="#2D2D2D" fill="#FFEBA2"/>
   <rect height="45" width="188" y="555" x="763" stroke-linecap="null" stroke-linejoin="null" stroke-dasharray="null" stroke="#2D2D2D" fill="#FFEBA2"/>
  </g>
  <g id="27c2ae11256e437f8527f00f0533c433-oa-5">
   <rect height="34" width="165" y="619" x="54" stroke-linecap="null" stroke-linejoin="null" stroke-dasharray="null" stroke="#2D2D2D" fill="#FFEBA2"/>
   <rect height="55" width="189" y="618" x="519" stroke-linecap="null" stroke-linejoin="null" stroke-dasharray="null" stroke="#2D2D2D" fill="#FFEBA2"/>
   <rect height="52" width="167" y="620" x="771" stroke-linecap="null" stroke-linejoin="null" stroke-dasharray="null" stroke="#2D2D2D" fill="#FFEBA2"/>
  </g>
  <g id="27c2ae11256e437f8527f00f0533c433-oa-6">
   <rect height="53" width="209" y="546" x="749" stroke-linecap="null" stroke-linejoin="null" stroke-dasharray="null" stroke="#2D2D2D" fill="#FFEBA2"/>
   <rect height="55" width="212" y="613" x="744" stroke-linecap="null" stroke-linejoin="null" stroke-dasharray="null" stroke="#2D2D2D" fill="#FFEBA2"/>
  </g>
  <g id="27c2ae11256e437f8527f00f0533c433-oa-7">
   <rect height="65" width="185" y="681" x="761" stroke-linecap="null" stroke-linejoin="null" stroke-dasharray="null" stroke="#2D2D2D" fill="#FFEBA2"/>
   <rect height="38" width="175" y="681" x="44" stroke-linecap="null" stroke-linejoin="null" stroke-dasharray="null" stroke="#2D2D2D" fill="#FFEBA2"/>
  </g>
 </g>
</svg>