<svg xmlns="http://www.w3.org/2000/svg" width="1916.0000000000002" height="875">
 <!-- Created with Image Occlusion Enhanced -->
 <g>
  <title>Labels</title>
 </g>
 <g>
  <title>Masks</title>
  <rect id="2bb6f5e983c14d4987073ffba5237fe3-oa-1" height="43.95604" width="430.76923" y="70.05495" x="55.42847" stroke="#2D2D2D" fill="#FFEBA2"/>
  <rect id="2bb6f5e983c14d4987073ffba5237fe3-oa-2" height="80.21978" width="501.0989" y="67.85714" x="1283.9999" stroke="#2D2D2D" fill="#FFEBA2"/>
  <rect id="2bb6f5e983c14d4987073ffba5237fe3-oa-3" height="46.15385" width="423.07692" y="167.85714" x="65.31858" stroke="#2D2D2D" fill="#FFEBA2"/>
  <rect id="2bb6f5e983c14d4987073ffba5237fe3-oa-4" height="208.79121" width="540.65934" y="168.95604" x="1290.59331" stroke="#2D2D2D" fill="#FFEBA2"/>
  <rect id="2bb6f5e983c14d4987073ffba5237fe3-oa-5" height="82.41758" width="684.61538" y="397.52747" x="568.61529" stroke="#2D2D2D" fill="#FFEBA2"/>
  <rect id="2bb6f5e983c14d4987073ffba5237fe3-oa-6" height="127.47253" width="428.57143" y="398.62637" x="1290.59331" stroke="#2D2D2D" fill="#FFEBA2"/>
  <rect id="2bb6f5e983c14d4987073ffba5237fe3-oa-7" height="49.45055" width="236.26374" y="397.52747" x="158.72518" stroke="#2D2D2D" fill="#FFEBA2"/>
  <rect id="2bb6f5e983c14d4987073ffba5237fe3-oa-8" height="53.84615" width="382.41758" y="539.28571" x="87.29661" stroke="#2D2D2D" fill="#FFEBA2"/>
  <rect id="2bb6f5e983c14d4987073ffba5237fe3-oa-9" height="79.12088" width="556.04396" y="542.58242" x="1287.29661" stroke="#2D2D2D" fill="#FFEBA2"/>
  <rect id="2bb6f5e983c14d4987073ffba5237fe3-oa-10" height="58.24176" width="234.06593" y="635.98901" x="170.81309" stroke="#2D2D2D" fill="#FFEBA2"/>
  <rect id="2bb6f5e983c14d4987073ffba5237fe3-oa-11" height="50.54945" width="346.15385" y="638.18681" x="569.71419" stroke="#2D2D2D" fill="#FFEBA2"/>
  <rect id="2bb6f5e983c14d4987073ffba5237fe3-oa-12" height="85.71429" width="212.08791" y="640.38462" x="1287.29661" stroke="#2D2D2D" fill="#FFEBA2"/>
  <rect id="2bb6f5e983c14d4987073ffba5237fe3-oa-13" height="62.63736" width="410.98901" y="732.69231" x="69.71419" stroke="#2D2D2D" fill="#FFEBA2"/>
  <rect id="2bb6f5e983c14d4987073ffba5237fe3-oa-14" height="104.3956" width="535.16484" y="738.18681" x="564.21968" stroke="#2D2D2D" fill="#FFEBA2"/>
  <rect id="2bb6f5e983c14d4987073ffba5237fe3-oa-15" height="126.37363" width="595.6044" y="739.28571" x="1287.29661" stroke="#2D2D2D" fill="#FFEBA2"/>
 </g>
</svg>