<svg xmlns="http://www.w3.org/2000/svg" width="587" height="779">
 <!-- Created with Image Occlusion Enhanced -->
 <g>
  <title>Labels</title>
 </g>
 <g display="inline">
  <title>Masks</title>
  <rect id="4ad48edfeeef47a7908410382417e04a-oa-1" height="20.56075" width="121.49532" y="435.95323" x="453.18687" stroke="#2D2D2D" fill="#3f7f00"/>
  <g id="4ad48edfeeef47a7908410382417e04a-oa-2">
   <rect height="26.16822" width="135.51401" y="170.53268" x="22.34577" stroke="#2D2D2D" fill="#3f7f00"/>
   <rect height="26.16822" width="143.92523" y="171.46726" x="248.51398" stroke="#2D2D2D" fill="#3f7f00"/>
   <rect height="23.36449" width="132.71028" y="174.27099" x="445.71024" stroke="#2D2D2D" fill="#3f7f00"/>
  </g>
  <g id="4ad48edfeeef47a7908410382417e04a-oa-3">
   <g>
    <rect height="17.75701" width="70.09346" y="358.38314" x="6.45792" stroke="#2D2D2D" fill="#3f7f00"/>
    <rect height="17.75701" width="69.15888" y="358.38314" x="104.58875" stroke="#2D2D2D" fill="#3f7f00"/>
   </g>
   <g>
    <rect height="16.82243" width="72.89719" y="358.38314" x="229.82239" stroke="#2D2D2D" fill="#3f7f00"/>
    <rect height="17.75701" width="67.28972" y="358.38314" x="330.75697" stroke="#2D2D2D" fill="#3f7f00"/>
   </g>
  </g>
  <g id="4ad48edfeeef47a7908410382417e04a-oa-4">
   <rect height="19.62617" width="35.51402" y="413.52332" x="390.57005" stroke="#2D2D2D" fill="#3f7f00"/>
   <rect height="15.88785" width="39.25234" y="416.32706" x="43.84109" stroke="#2D2D2D" fill="#3f7f00"/>
  </g>
  <g id="4ad48edfeeef47a7908410382417e04a-oa-5">
   <rect height="42.99065" width="83.17757" y="453.71024" x="6.45792" stroke="#2D2D2D" fill="#3f7f00"/>
   <rect height="37.38318" width="100.93458" y="460.25229" x="330.75697" stroke="#2D2D2D" fill="#3f7f00"/>
  </g>
  <g id="4ad48edfeeef47a7908410382417e04a-oa-6">
   <rect height="16.82243" width="202.80373" y="534.08407" x="98.98128" stroke-linecap="null" stroke-linejoin="null" stroke-dasharray="null" stroke="#2D2D2D" fill="#3f7f00"/>
   <rect height="16.82243" width="85.98131" y="505.1121" x="493.37379" stroke-linecap="null" stroke-linejoin="null" stroke-dasharray="null" stroke="#2D2D2D" fill="#3f7f00"/>
   <rect height="14.01869" width="100.93458" y="527.54201" x="464.40183" stroke-linecap="null" stroke-linejoin="null" stroke-dasharray="null" stroke="#2D2D2D" fill="#3f7f00"/>
  </g>
  <g id="4ad48edfeeef47a7908410382417e04a-oa-7">
   <rect height="16.82243" width="70.09346" y="629.41117" x="478.42052" stroke="#2D2D2D" fill="#3f7f00"/>
   <rect height="20.56075" width="106.54205" y="701.37378" x="313.93454" stroke="#2D2D2D" fill="#3f7f00"/>
   <rect height="18.69159" width="181.3084" y="722.86911" x="124.21492" stroke="#2D2D2D" fill="#3f7f00"/>
   <rect stroke="#2D2D2D" height="18.69158" width="53.27103" y="746.23359" x="227.01866" fill="#3f7f00"/>
  </g>
 </g>
</svg>