<svg xmlns="http://www.w3.org/2000/svg" width="1284" height="607">
 <!-- Created with Image Occlusion Enhanced -->
 <g>
  <title>Labels</title>
 </g>
 <g>
  <title>Masks</title>
  <g id="80c8fca1b9f248d5a4175e40c5e945c0-oa-1">
   <rect height="72.72727" width="107.57576" y="400.57577" x="339.48484" stroke="#2D2D2D" fill="#FFEBA2"/>
   <rect height="59.84849" width="146.21212" y="405.12122" x="583.42424" stroke="#2D2D2D" fill="#FFEBA2"/>
   <rect height="61.36364" width="116.66667" y="402.8485" x="829.63636" stroke="#2D2D2D" fill="#FFEBA2"/>
   <rect height="46.9697" width="102.27273" y="411.93941" x="1092.51515" stroke="#2D2D2D" fill="#FFEBA2"/>
  </g>
  <g id="80c8fca1b9f248d5a4175e40c5e945c0-oa-2">
   <g>
    <rect height="39.39394" width="144.69697" y="513.45456" x="297.0606" stroke="#2D2D2D" fill="#FFEBA2"/>
    <rect height="36.36364" width="134.09091" y="514.21213" x="570.54545" stroke="#2D2D2D" fill="#FFEBA2"/>
    <rect height="68.18182" width="151.51515" y="514.21213" x="816.75757" stroke="#2D2D2D" fill="#FFEBA2"/>
   </g>
   <g>
    <rect height="78.78788" width="147.72727" y="288.45456" x="313.72726" stroke="#2D2D2D" fill="#FFEBA2"/>
    <rect height="59.84849" width="222.72728" y="300.57577" x="545.54545" stroke="#2D2D2D" fill="#FFEBA2"/>
    <rect height="54.54546" width="116.66667" y="299.06062" x="820.54545" stroke="#2D2D2D" fill="#FFEBA2"/>
   </g>
  </g>
  <g id="80c8fca1b9f248d5a4175e40c5e945c0-oa-3">
   <rect height="92.42424" width="199.24243" y="176.33334" x="1052.36364" stroke="#2D2D2D" fill="#FFEBA2"/>
   <rect height="48.48485" width="173.48485" y="204.36365" x="799.33333" stroke="#2D2D2D" fill="#FFEBA2"/>
   <rect height="53.0303" width="160.60606" y="199.06062" x="546.30302" stroke="#2D2D2D" fill="#FFEBA2"/>
   <rect height="43.93939" width="90.90909" y="196.03031" x="339.48484" stroke="#2D2D2D" fill="#FFEBA2"/>
  </g>
  <g id="80c8fca1b9f248d5a4175e40c5e945c0-oa-4">
   <rect height="55.30303" width="101.51515" y="94.51516" x="340.99999" stroke="#2D2D2D" fill="#FFEBA2"/>
   <rect height="54.54546" width="139.39394" y="95.27274" x="600.84848" stroke="#2D2D2D" fill="#FFEBA2"/>
   <rect height="55.30303" width="179.54546" y="94.51516" x="826.60606" stroke="#2D2D2D" fill="#FFEBA2"/>
   <rect height="55.30303" width="150" y="90.72728" x="1072.06061" stroke="#2D2D2D" fill="#FFEBA2"/>
  </g>
  <rect id="80c8fca1b9f248d5a4175e40c5e945c0-oa-5" height="484.09091" width="142.42424" y="83.15152" x="318.27272" stroke="#2D2D2D" fill="#FFEBA2"/>
  <rect id="80c8fca1b9f248d5a4175e40c5e945c0-oa-6" height="484.84849" width="191.66667" y="89.21213" x="550.84848" stroke="#2D2D2D" fill="#FFEBA2"/>
  <rect id="80c8fca1b9f248d5a4175e40c5e945c0-oa-7" height="494.69698" width="205.30303" y="82.39395" x="792.51515" stroke="#2D2D2D" fill="#FFEBA2"/>
  <g id="80c8fca1b9f248d5a4175e40c5e945c0-oa-8">
   <rect height="184.84849" width="215.15152" y="87.69698" x="1046.30303" stroke="#2D2D2D" fill="#FFEBA2"/>
   <rect height="69.69697" width="187.12121" y="398.30304" x="1063.72727" stroke="#2D2D2D" fill="#FFEBA2"/>
  </g>
 </g>
</svg>