<svg xmlns="http://www.w3.org/2000/svg" width="834" height="1312">
 <!-- Created with Image Occlusion Enhanced -->
 <g>
  <title>Labels</title>
 </g>
 <g>
  <title>Masks</title>
  <rect id="06258ddc5f45440a91d6c8b1e1f0c298-ao-1" height="67.70833" width="152.08333" y="108.83331" x="187.87498" stroke="#2D2D2D" fill="#FFEBA2"/>
  <rect id="06258ddc5f45440a91d6c8b1e1f0c298-ao-2" height="67.70833" width="152.08333" y="112.47914" x="356.62497" stroke="#2D2D2D" fill="#FFEBA2"/>
  <rect stroke="#2D2D2D" id="06258ddc5f45440a91d6c8b1e1f0c298-ao-3" height="90.625" width="114.58333" y="115.60414" x="702.45829" fill="#FFEBA2"/>
  <rect stroke="#2D2D2D" id="06258ddc5f45440a91d6c8b1e1f0c298-ao-4" height="53.125" width="114.58333" y="222.89581" x="192.04162" fill="#FFEBA2"/>
  <rect stroke="#2D2D2D" id="06258ddc5f45440a91d6c8b1e1f0c298-ao-5" height="53.125" width="153.12499" y="219.77082" x="359.74998" fill="#FFEBA2"/>
  <rect id="06258ddc5f45440a91d6c8b1e1f0c298-ao-6" stroke="#2D2D2D" height="53.125" width="114.58333" y="220.81248" x="705.58331" fill="#FFEBA2"/>
  <rect id="06258ddc5f45440a91d6c8b1e1f0c298-ao-7" stroke="#2D2D2D" height="53.125" width="114.58333" y="372.89582" x="190.99998" fill="#FFEBA2"/>
  <rect id="06258ddc5f45440a91d6c8b1e1f0c298-ao-8" stroke="#2D2D2D" height="53.125" width="114.58333" y="373.93748" x="354.54164" fill="#FFEBA2"/>
  <rect id="06258ddc5f45440a91d6c8b1e1f0c298-ao-9" stroke="#2D2D2D" height="53.125" width="114.58333" y="373.93749" x="545.16663" fill="#FF7E7E" class="qshape"/>
  <rect stroke="#2D2D2D" id="06258ddc5f45440a91d6c8b1e1f0c298-ao-10" height="86.45833" width="114.58333" y="374.97914" x="700.37497" fill="#FFEBA2"/>
  <rect id="06258ddc5f45440a91d6c8b1e1f0c298-ao-11" stroke="#2D2D2D" height="53.125" width="114.58333" y="910.39578" x="193.08331" fill="#FFEBA2"/>
  <rect id="06258ddc5f45440a91d6c8b1e1f0c298-ao-12" stroke="#2D2D2D" height="53.125" width="114.58333" y="808.31249" x="192.04164" fill="#FFEBA2"/>
  <rect stroke="#2D2D2D" id="06258ddc5f45440a91d6c8b1e1f0c298-ao-13" height="87.5" width="138.54167" y="805.18746" x="358.7083" fill="#FFEBA2"/>
  <rect id="06258ddc5f45440a91d6c8b1e1f0c298-ao-14" stroke="#2D2D2D" height="53.125" width="114.58333" y="912.47916" x="358.70831" fill="#FFEBA2"/>
  <rect stroke="#2D2D2D" id="06258ddc5f45440a91d6c8b1e1f0c298-ao-15" height="53.125" width="123.95833" y="910.39579" x="543.08332" fill="#FFEBA2"/>
  <rect id="06258ddc5f45440a91d6c8b1e1f0c298-ao-16" stroke="#2D2D2D" height="53.125" width="114.58333" y="982.27079" x="187.87498" fill="#FFEBA2"/>
  <rect stroke="#2D2D2D" id="06258ddc5f45440a91d6c8b1e1f0c298-ao-17" height="53.125" width="142.70833" y="989.56249" x="359.74998" fill="#FFEBA2"/>
  <rect id="06258ddc5f45440a91d6c8b1e1f0c298-ao-18" stroke="#2D2D2D" height="53.125" width="114.58333" y="990.60416" x="552.4583" fill="#FFEBA2"/>
 </g>
</svg>