<svg xmlns="http://www.w3.org/2000/svg" width="951" height="544">
 <!-- Created with Image Occlusion Enhanced -->
 <g>
  <title>Labels</title>
 </g>
 <g>
  <title>Masks</title>
  <rect id="2641e7e93d384db0a14d8e7e573c543c-oa-1" height="25" width="55.76923" y="282.92306" x="133.61541" stroke="#2D2D2D" fill="#ff5656"/>
  <rect id="2641e7e93d384db0a14d8e7e573c543c-oa-2" height="44.23077" width="101.92308" y="280.99999" x="229.76926" stroke="#2D2D2D" fill="#ff5656"/>
  <rect id="2641e7e93d384db0a14d8e7e573c543c-oa-3" height="23.07692" width="80.76923" y="296.3846" x="375.92311" stroke="#2D2D2D" fill="#ff5656"/>
  <rect id="2641e7e93d384db0a14d8e7e573c543c-oa-4" height="65.38462" width="138.46154" y="280.99999" x="593.2308" stroke="#2D2D2D" fill="#ff5656"/>
  <rect id="2641e7e93d384db0a14d8e7e573c543c-oa-5" height="28.84615" width="165.38462" y="300.23076" x="774.00004" stroke="#2D2D2D" fill="#ff5656"/>
  <rect id="2641e7e93d384db0a14d8e7e573c543c-oa-6" height="26.92308" width="103.84616" y="280.99999" x="6.69233" stroke="#2D2D2D" fill="#ff5656"/>
  <rect id="2641e7e93d384db0a14d8e7e573c543c-oa-7" height="13.46154" width="92.30769" y="30.99998" x="374.00003" stroke="#2D2D2D" fill="#ffd4aa"/>
  <rect id="2641e7e93d384db0a14d8e7e573c543c-oa-8" height="17.30769" width="92.30769" y="59.84614" x="375.92311" stroke="#2D2D2D" fill="#ffd4aa"/>
  <rect id="2641e7e93d384db0a14d8e7e573c543c-oa-9" height="15.38462" width="51.92308" y="30.99998" x="595.15388" stroke="#2D2D2D" fill="#ffd4aa"/>
  <rect id="2641e7e93d384db0a14d8e7e573c543c-oa-10" height="13.46154" width="59.61539" y="30.99998" x="129.76925" stroke="#2D2D2D" fill="#ffd4aa"/>
  <rect id="2641e7e93d384db0a14d8e7e573c543c-oa-11" height="19.23077" width="73.07692" y="34.84613" x="206.69233" stroke="#2D2D2D" fill="#ffd4aa"/>
  <rect id="2641e7e93d384db0a14d8e7e573c543c-oa-12" height="9.61538" width="57.69231" y="102.15383" x="599.00003" stroke="#2D2D2D" fill="#ffd4aa"/>
  <rect id="2641e7e93d384db0a14d8e7e573c543c-oa-13" height="17.30769" width="42.30769" y="142.53844" x="750.92311" stroke="#2D2D2D" fill="#ffd4aa"/>
  <rect id="2641e7e93d384db0a14d8e7e573c543c-oa-14" height="15.38462" width="96.15385" y="154.07691" x="595.15388" stroke="#2D2D2D" fill="#ffd4aa"/>
  <rect id="2641e7e93d384db0a14d8e7e573c543c-oa-15" height="15.38462" width="82.69231" y="194.46152" x="354.76926" stroke="#2D2D2D" fill="#ffd4aa"/>
  <rect id="2641e7e93d384db0a14d8e7e573c543c-oa-16" height="15.38462" width="46.15385" y="196.3846" x="129.76925" stroke="#2D2D2D" fill="#ffd4aa"/>
  <rect id="2641e7e93d384db0a14d8e7e573c543c-oa-17" height="19.23077" width="51.92308" y="238.69229" x="129.76925" stroke="#2D2D2D" fill="#ffd4aa"/>
  <rect id="2641e7e93d384db0a14d8e7e573c543c-oa-18" height="11.53846" width="34.61539" y="192.53845" x="600.92311" stroke="#2D2D2D" fill="#ffd4aa"/>
  <rect id="2641e7e93d384db0a14d8e7e573c543c-oa-19" height="15.38462" width="57.69231" y="238.69229" x="593.2308" stroke="#2D2D2D" fill="#ffd4aa"/>
  <rect id="2641e7e93d384db0a14d8e7e573c543c-oa-20" height="17.30769" width="198.07693" y="371.3846" x="352.84618" stroke="#2D2D2D" fill="#ffd4aa"/>
  <rect id="2641e7e93d384db0a14d8e7e573c543c-oa-21" height="26.92308" width="94.23077" y="371.3846" x="229.76926" stroke="#2D2D2D" fill="#ffd4aa"/>
 </g>
</svg>