<svg xmlns="http://www.w3.org/2000/svg" width="1139" height="269">
 <!-- Created with Image Occlusion Enhanced -->
 <g>
  <title>Labels</title>
 </g>
 <g>
  <title>Masks</title>
  <g id="280e27a59bfe41b8adc7616031021e45-oa-1">
   <rect height="16.88312" width="46.75325" y="16.06493" x="234.37657" stroke="#2D2D2D" fill="#FFEBA2"/>
   <rect height="16.88312" width="46.75325" y="16.06493" x="994.11682" stroke="#2D2D2D" fill="#FFEBA2"/>
   <rect height="16.88312" width="46.75325" y="16.06493" x="633.07786" stroke="#2D2D2D" fill="#FFEBA2"/>
  </g>
  <g id="280e27a59bfe41b8adc7616031021e45-oa-2">
   <rect stroke="#2D2D2D" height="16.88312" width="11.68834" y="59.57142" x="937.62329" fill="#FFEBA2"/>
   <rect stroke="#2D2D2D" height="16.88312" width="11.68834" y="58.92207" x="577.88304" fill="#FFEBA2"/>
  </g>
  <g id="280e27a59bfe41b8adc7616031021e45-oa-3">
   <rect stroke="#2D2D2D" height="16.88312" width="48.7013" y="98.53246" x="591.51941" fill="#FFEBA2"/>
   <rect stroke="#2D2D2D" height="16.88312" width="133.76625" y="139.44155" x="588.27268" fill="#FFEBA2"/>
  </g>
  <g id="280e27a59bfe41b8adc7616031021e45-oa-4">
   <rect stroke="#2D2D2D" height="16.88312" width="87.66235" y="158.27272" x="1052.55837" fill="#FFEBA2"/>
   <rect stroke="#2D2D2D" height="16.88312" width="42.20781" y="175.80519" x="935.67524" fill="#FFEBA2"/>
  </g>
  <g id="280e27a59bfe41b8adc7616031021e45-oa-5">
   <rect height="16.88312" width="46.75325" y="114.76622" x="219.44151" stroke="#2D2D2D" fill="#FFEBA2"/>
   <rect stroke="#2D2D2D" height="16.88312" width="40.25974" y="154.37661" x="218.14281" fill="#FFEBA2"/>
  </g>
  <g id="280e27a59bfe41b8adc7616031021e45-oa-6">
   <g>
    <rect height="16.88312" width="46.75325" y="136.19479" x="179.18177" stroke="#2D2D2D" fill="#FFEBA2"/>
    <rect stroke="#2D2D2D" height="16.88312" width="70.12987" y="174.50648" x="186.97398" fill="#FFEBA2"/>
   </g>
   <g>
    <rect stroke="#2D2D2D" height="16.88312" width="70.12987" y="191.3896" x="281.12982" fill="#FFEBA2"/>
    <rect stroke="#2D2D2D" height="16.88312" width="70.12987" y="213.46752" x="185.02593" fill="#FFEBA2"/>
   </g>
  </g>
 </g>
</svg>