<svg xmlns="http://www.w3.org/2000/svg" width="752" height="551">
 <!-- Created with Image Occlusion Enhanced -->
 <g>
  <title>Labels</title>
 </g>
 <g>
  <title>Masks</title>
  <g id="3753a8dd5f454b6fb0953f6a98a88a7b-oa-1">
   <rect height="31" width="94" y="37" x="112" stroke="#2D2D2D" fill="#FFEBA2"/>
   <rect height="22" width="79" y="168" x="112" stroke="#2D2D2D" fill="#FFEBA2"/>
   <rect height="23" width="83" y="215" x="112" stroke="#2D2D2D" fill="#FFEBA2"/>
   <rect height="16" width="67" y="321" x="116" stroke="#2D2D2D" fill="#FFEBA2"/>
   <rect height="31" width="85" y="438" x="115" stroke="#2D2D2D" fill="#FFEBA2"/>
  </g>
  <g id="3753a8dd5f454b6fb0953f6a98a88a7b-oa-2">
   <rect height="33" width="86" y="39" x="222" stroke="#2D2D2D" fill="#FFEBA2"/>
   <rect height="24" width="91" y="171" x="221" stroke="#2D2D2D" fill="#FFEBA2"/>
   <rect height="18" width="86" y="217" x="219" stroke="#2D2D2D" fill="#FFEBA2"/>
   <rect height="24" width="92" y="323" x="221" stroke="#2D2D2D" fill="#FFEBA2"/>
   <rect height="18" width="94" y="441" x="221" stroke="#2D2D2D" fill="#FFEBA2"/>
  </g>
  <g id="3753a8dd5f454b6fb0953f6a98a88a7b-oa-3">
   <rect height="12" width="67" y="217" x="336" stroke="#2D2D2D" fill="#FFEBA2"/>
   <rect height="11" width="60" y="491" x="341" stroke="#2D2D2D" fill="#FFEBA2"/>
   <rect height="59" width="85" y="79" x="339" stroke-linecap="null" stroke-linejoin="null" stroke-dasharray="null" stroke="#2D2D2D" fill="#FFEBA2"/>
   <g>
    <rect height="15" width="56" y="264" x="369" stroke-linecap="null" stroke-linejoin="null" stroke-dasharray="null" stroke="#2D2D2D" fill="#FFEBA2"/>
    <rect height="20" width="74" y="280" x="338" stroke-linecap="null" stroke-linejoin="null" stroke-dasharray="null" stroke="#2D2D2D" fill="#FFEBA2"/>
   </g>
  </g>
  <g id="3753a8dd5f454b6fb0953f6a98a88a7b-oa-4">
   <rect height="49" width="83" y="264" x="657" stroke="#2D2D2D" fill="#FFEBA2"/>
   <rect height="60" width="91" y="323" x="644" stroke="#2D2D2D" fill="#FFEBA2"/>
   <rect height="17" width="67" y="171" x="644" stroke="#2D2D2D" fill="#FFEBA2"/>
   <rect height="63" width="82" y="37" x="643" stroke="#2D2D2D" fill="#FFEBA2"/>
  </g>
 </g>
</svg>