<svg xmlns="http://www.w3.org/2000/svg" width="1574" height="531">
 <!-- Created with Image Occlusion Enhanced -->
 <g>
  <title>Labels</title>
  <text transform="matrix(0.48569966877413506,0,0,0.48976772302134464,696.8654939276726,60.822637777293245) " xml:space="preserve" text-anchor="middle" font-family="'Arial', 'Helvetica LT Std', Arial, sans-serif" font-size="24" id="svg_22" y="172.82718" x="1432.14789" stroke-width="0" fill="#000000">Alteración sistémica</text>
 </g>
 <g>
  <title>Masks</title>
  <rect fill="#FFEBA2" x="411.58555" y="454.58565" width="82.88288" height="20.72072" stroke="#2D2D2D" id="3ef0f9666a6540359131437d910f773d-oa-1"/>
  <g id="3ef0f9666a6540359131437d910f773d-oa-2" stroke="null">
   <rect fill="#FFEBA2" x="382.75671" y="53.68473" width="88.40841" height="20.72072" stroke="#2D2D2D"/>
   <rect fill="#FFEBA2" x="409.66362" y="428.45952" width="88.40841" height="20.72072" stroke="#2D2D2D"/>
  </g>
  <g id="3ef0f9666a6540359131437d910f773d-oa-3">
   <rect fill="#FFEBA2" stroke="#2D2D2D" x="282.75671" y="48.27931" width="31.53153" height="29.72973"/>
   <rect fill="#FFEBA2" stroke="#2D2D2D" x="289.06302" y="125.75679" width="25.22523" height="23.42342"/>
   <rect fill="#FFEBA2" stroke="#2D2D2D" x="287.26122" y="226.65769" width="23.42342" height="20.72072"/>
   <rect fill="#FFEBA2" stroke="#2D2D2D" x="288.16212" y="328.4595" width="23.42342" height="20.72072"/>
  </g>
  <g id="3ef0f9666a6540359131437d910f773d-oa-4" stroke="null">
   <rect fill="#FFEBA2" x="150.83422" y="50.08112" width="45.35101" height="20.72072" stroke="#2D2D2D"/>
   <rect fill="#FFEBA2" x="149.84833" y="127.5586" width="45.35101" height="20.72072" stroke="#2D2D2D"/>
   <rect fill="#FFEBA2" x="149.84833" y="227.55861" width="45.35101" height="20.72072" stroke="#2D2D2D"/>
   <rect fill="#FFEBA2" x="151.82011" y="327.55861" width="45.35101" height="20.72072" stroke="#2D2D2D"/>
   <rect fill="#FFEBA2" x="144.91887" y="428.45952" width="45.35101" height="20.72072" stroke="#2D2D2D"/>
  </g>
  <rect fill="#FFEBA2" stroke="#2D2D2D" stroke-dasharray="null" stroke-linejoin="null" stroke-linecap="null" x="1263.83784" y="57.28832" width="94.5946" height="18.91892" id="3ef0f9666a6540359131437d910f773d-oa-5"/>
  <rect fill="#FFEBA2" stroke="#2D2D2D" stroke-dasharray="null" stroke-linejoin="null" stroke-linecap="null" x="1280.05406" y="128.45949" width="57.65766" height="22.52252" id="3ef0f9666a6540359131437d910f773d-oa-6"/>
  <rect fill="#FFEBA2" stroke="#2D2D2D" stroke-dasharray="null" stroke-linejoin="null" stroke-linecap="null" x="1345.81983" y="158.18922" width="99.0991" height="18.01802" id="3ef0f9666a6540359131437d910f773d-oa-7"/>
  <rect fill="#FFEBA2" stroke-dasharray="null" stroke-linejoin="null" stroke-linecap="null" x="1359.33334" y="232.964" width="94.5946" height="18.01802" id="3ef0f9666a6540359131437d910f773d-oa-8" stroke="#2D2D2D"/>
  <g id="3ef0f9666a6540359131437d910f773d-oa-9">
   <rect fill="#ff0000" x="418.79275" y="229.36041" width="118.01802" height="20.72072" stroke="#2D2D2D"/>
   <rect fill="#FFEBA2" x="418.79275" y="255.48654" width="118.01802" height="20.72072" stroke="#2D2D2D"/>
  </g>
  <g id="3ef0f9666a6540359131437d910f773d-oa-10">
   <g>
    <rect fill="#FFEBA2" x="415.18915" y="184.31536" width="82.88288" height="20.72072" stroke="#2D2D2D"/>
    <rect fill="#FFEBA2" x="415.18915" y="157.28833" width="82.88288" height="20.72072" stroke="#2D2D2D"/>
    <rect fill="#FFEBA2" x="414.28825" y="130.2613" width="93.69369" height="20.72072" stroke="#2D2D2D"/>
   </g>
   <g>
    <rect fill="#FFEBA2" x="416.99095" y="388.81988" width="82.88288" height="20.72072" stroke="#2D2D2D"/>
    <rect fill="#FFEBA2" x="417.89185" y="359.09015" width="82.88288" height="20.72072" stroke="#2D2D2D"/>
    <rect fill="#FFEBA2" x="416.99095" y="333.86492" width="101.8018" height="20.72072" stroke="#2D2D2D"/>
   </g>
  </g>
 </g>
</svg>