<svg xmlns="http://www.w3.org/2000/svg" width="858" height="1044">
 <!-- Created with Image Occlusion Enhanced -->
 <g>
  <title>Labels</title>
 </g>
 <g>
  <title>Masks</title>
  
  <g id="68237846e4754d7aaf5d16c8f0611f1b-oa-1">
   <rect height="40" width="170" y="612" x="126" stroke="#2D2D2D" fill="#FFEBA2"/>
   <rect stroke="#2D2D2D" height="16" width="104" y="594" x="194" fill="#FFEBA2"/>
  </g>
  
  
  
  <g id="68237846e4754d7aaf5d16c8f0611f1b-oa-2">
   <g>
    <rect height="14" width="176" y="836" x="66" stroke-linecap="null" stroke-linejoin="null" stroke-dasharray="null" stroke="#2D2D2D" fill="#FFEBA2"/>
    <rect stroke="#2D2D2D" height="12" width="153.99999" y="852" x="16" stroke-linecap="null" stroke-linejoin="null" stroke-dasharray="null" fill="#FFEBA2"/>
   </g>
   <g>
    <rect height="14" width="176" y="866" x="112" stroke-linecap="null" stroke-linejoin="null" stroke-dasharray="null" stroke="#2D2D2D" fill="#FFEBA2"/>
    <rect height="14" width="168" y="880" x="22" stroke-linecap="null" stroke-linejoin="null" stroke-dasharray="null" stroke="#2D2D2D" fill="#FFEBA2"/>
   </g>
   <rect height="12" width="100" y="894" x="38" stroke-linecap="null" stroke-linejoin="null" stroke-dasharray="null" stroke="#2D2D2D" fill="#FFEBA2"/>
   <rect height="56" width="190" y="944" x="18" stroke-linecap="null" stroke-linejoin="null" stroke-dasharray="null" stroke="#2D2D2D" fill="#FFEBA2"/>
  </g>
  <g id="68237846e4754d7aaf5d16c8f0611f1b-oa-3">
   <g>
    <rect height="16" width="134" y="542" x="650" stroke-linecap="null" stroke-linejoin="null" stroke-dasharray="null" stroke="#2D2D2D" fill="#FFEBA2"/>
    <rect height="12" width="66" y="556" x="602" stroke-linecap="null" stroke-linejoin="null" stroke-dasharray="null" stroke="#2D2D2D" fill="#FFEBA2"/>
   </g>
   <g>
    <rect height="14" width="134" y="580" x="658" stroke-linecap="null" stroke-linejoin="null" stroke-dasharray="null" stroke="#2D2D2D" fill="#FFEBA2"/>
    <rect height="14" width="72" y="598" x="674" stroke-linecap="null" stroke-linejoin="null" stroke-dasharray="null" stroke="#2D2D2D" fill="#FFEBA2"/>
    <rect height="12" width="88" y="610" x="612" stroke-linecap="null" stroke-linejoin="null" stroke-dasharray="null" stroke="#2D2D2D" fill="#FFEBA2"/>
   </g>
   <g>
    <rect stroke="#2D2D2D" height="12" width="196" y="652" x="620" stroke-linecap="null" stroke-linejoin="null" stroke-dasharray="null" fill="#FFEBA2"/>
    <rect height="12" width="32" y="668" x="604" stroke-linecap="null" stroke-linejoin="null" stroke-dasharray="null" stroke="#2D2D2D" fill="#FFEBA2"/>
   </g>
   <rect height="66" width="198" y="694" x="602" stroke-linecap="null" stroke-linejoin="null" stroke-dasharray="null" stroke="#2D2D2D" fill="#FFEBA2"/>
  </g>
  <g id="68237846e4754d7aaf5d16c8f0611f1b-oa-4">
   <rect height="30" width="110" y="138" x="292" stroke="#2D2D2D" fill="#FFEBA2"/>
   <rect height="30" width="80" y="226" x="758" stroke="#2D2D2D" fill="#FFEBA2"/>
   <rect height="42" width="108" y="360" x="310" stroke="#2D2D2D" fill="#FFEBA2"/>
  </g>
  <rect id="68237846e4754d7aaf5d16c8f0611f1b-oa-5" height="28" width="114" y="978" x="662" stroke-linecap="null" stroke-linejoin="null" stroke-dasharray="null" stroke="#2D2D2D" fill="#FFEBA2"/>
  <g id="68237846e4754d7aaf5d16c8f0611f1b-oa-6">
   <rect height="16" width="98" y="836" x="528" stroke-linecap="null" stroke-linejoin="null" stroke-dasharray="null" stroke="#2D2D2D" fill="#FFEBA2"/>
   <rect height="30" width="282" y="866" x="474" stroke-linecap="null" stroke-linejoin="null" stroke-dasharray="null" stroke="#2D2D2D" fill="#FFEBA2"/>
   <rect height="22" width="174" y="920" x="476" stroke-linecap="null" stroke-linejoin="null" stroke-dasharray="null" stroke="#2D2D2D" fill="#FFEBA2"/>
   <rect height="56" width="170" y="972" x="478" stroke-linecap="null" stroke-linejoin="null" stroke-dasharray="null" stroke="#2D2D2D" fill="#FFEBA2"/>
  </g>
 </g>
</svg>