<svg xmlns="http://www.w3.org/2000/svg" width="1443" height="1142">
 <!-- Created with Image Occlusion Enhanced -->
 <g>
  <title>Labels</title>
 </g>
 <g>
  <title>Masks</title>
  <rect id="764b564e03464e5091b9395f05018d82-oa-1" height="100" width="172.72728" y="298.90905" x="166.09095" stroke="#2D2D2D" fill="#FFEBA2"/>
  <rect id="764b564e03464e5091b9395f05018d82-oa-2" height="59.09091" width="150" y="294.36359" x="384.27278" stroke="#2D2D2D" fill="#FFEBA2"/>
  <rect id="764b564e03464e5091b9395f05018d82-oa-3" height="68.18182" width="140.90909" y="276.18177" x="670.63642" stroke="#2D2D2D" fill="#FFEBA2"/>
  <rect id="764b564e03464e5091b9395f05018d82-oa-4" height="163.63637" width="240.9091" y="271.63632" x="1097.90916" stroke="#2D2D2D" fill="#FFEBA2"/>
  <rect id="764b564e03464e5091b9395f05018d82-oa-5" height="90.90909" width="172.72728" y="467.09087" x="175.18186" stroke="#2D2D2D" fill="#FFEBA2"/>
  <rect id="764b564e03464e5091b9395f05018d82-oa-6" height="59.09091" width="172.72728" y="457.99996" x="388.81823" stroke="#2D2D2D" fill="#FFEBA2"/>
  <rect id="764b564e03464e5091b9395f05018d82-oa-7" height="86.36364" width="368.18183" y="471.63632" x="661.54551" stroke="#2D2D2D" fill="#FFEBA2"/>
  <rect id="764b564e03464e5091b9395f05018d82-oa-8" height="86.36364" width="240.9091" y="471.63632" x="1093.3637" stroke="#2D2D2D" fill="#FFEBA2"/>
  <rect id="764b564e03464e5091b9395f05018d82-oa-9" height="86.36364" width="159.09091" y="598.90905" x="179.72732" stroke="#2D2D2D" fill="#FFEBA2"/>
  <rect id="764b564e03464e5091b9395f05018d82-oa-10" height="50" width="136.36364" y="598.90905" x="388.81823" stroke="#2D2D2D" fill="#FFEBA2"/>
  <rect id="764b564e03464e5091b9395f05018d82-oa-11" height="177.27273" width="377.27274" y="589.81814" x="661.54551" stroke="#2D2D2D" fill="#FFEBA2"/>
  <rect id="764b564e03464e5091b9395f05018d82-oa-12" height="104.54546" width="327.27274" y="580.72724" x="1093.3637" stroke="#2D2D2D" fill="#FFEBA2"/>
  <rect id="764b564e03464e5091b9395f05018d82-oa-13" height="90.90909" width="163.63637" y="807.99997" x="175.18186" stroke="#2D2D2D" fill="#FFEBA2"/>
  <rect id="764b564e03464e5091b9395f05018d82-oa-14" height="50" width="118.18182" y="817.09088" x="384.27278" stroke="#2D2D2D" fill="#FFEBA2"/>
  <rect id="764b564e03464e5091b9395f05018d82-oa-15" height="177.27273" width="381.81819" y="807.99997" x="652.4546" stroke="#2D2D2D" fill="#FFEBA2"/>
  <rect id="764b564e03464e5091b9395f05018d82-oa-16" height="104.54546" width="340.9091" y="798.90906" x="1079.72734" stroke="#2D2D2D" fill="#FFEBA2"/>
  <rect id="764b564e03464e5091b9395f05018d82-oa-17" height="86.36364" width="145.45455" y="1030.72725" x="179.72732" stroke="#2D2D2D" fill="#FFEBA2"/>
  <rect id="764b564e03464e5091b9395f05018d82-oa-18" height="45.45455" width="127.27273" y="1035.2727" x="384.27278" stroke="#2D2D2D" fill="#FFEBA2"/>
  <rect id="764b564e03464e5091b9395f05018d82-oa-19" height="90.90909" width="381.81819" y="1030.72725" x="661.54551" stroke="#2D2D2D" fill="#FFEBA2"/>
  <rect id="764b564e03464e5091b9395f05018d82-oa-20" height="90.90909" width="318.18183" y="1030.72725" x="1102.45461" stroke="#2D2D2D" fill="#FFEBA2"/>
 </g>
</svg>