<svg xmlns="http://www.w3.org/2000/svg" width="2120" height="1312" stroke="null" style="vector-effect: non-scaling-stroke;">
 <!-- Created with Image Occlusion Enhanced -->
 <g stroke="null">
  <title stroke="null">Labels</title>
 </g>
 <g stroke="null">
  <title stroke="null">Masks</title>
  <rect stroke="#2D2D2D" id="7b0a2fa56dd0431f82f7909089b9d745-oa-1" height="34.78261" width="332.60869" y="114.0869" x="1062.60866" fill="#FFEBA2"/>
  <rect stroke="#2D2D2D" id="7b0a2fa56dd0431f82f7909089b9d745-oa-2" height="30.43478" width="221.73915" y="183.65212" x="1253.91298" fill="#FFEBA2"/>
  <rect id="7b0a2fa56dd0431f82f7909089b9d745-oa-3" stroke="#2D2D2D" height="34.78261" width="332.60869" y="655.39126" x="1574.5652" fill="#FFEBA2"/>
  <rect stroke="#2D2D2D" id="7b0a2fa56dd0431f82f7909089b9d745-oa-4" height="28.26087" width="267.39132" y="220.60864" x="1152.82607" fill="#FFEBA2"/>
  <rect stroke="#2D2D2D" id="7b0a2fa56dd0431f82f7909089b9d745-oa-5" height="34.78261" width="249.99998" y="242.34777" x="1683.26088" fill="#FFEBA2"/>
  <rect stroke="#2D2D2D" id="7b0a2fa56dd0431f82f7909089b9d745-oa-6" height="34.78261" width="193.47825" y="507.56515" x="1707.17386" fill="#FFEBA2"/>
  <rect stroke="#2D2D2D" id="7b0a2fa56dd0431f82f7909089b9d745-oa-7" height="34.78261" width="232.60868" y="596.69558" x="1674.5652" fill="#FFEBA2"/>
  <rect stroke="#2D2D2D" id="7b0a2fa56dd0431f82f7909089b9d745-oa-8" height="34.78261" width="284.78261" y="729.30429" x="1672.39129" fill="#FFEBA2"/>
  <rect stroke="#2D2D2D" id="7b0a2fa56dd0431f82f7909089b9d745-oa-9" height="34.78261" width="147.82605" y="648.86953" x="865.86956" fill="#FFEBA2"/>
  <rect stroke="#2D2D2D" id="7b0a2fa56dd0431f82f7909089b9d745-oa-10" height="34.78261" width="380.43473" y="648.86952" x="1032.17385" fill="#FFEBA2"/>
  <rect stroke="#2D2D2D" id="7b0a2fa56dd0431f82f7909089b9d745-oa-11" height="34.78261" width="163.04344" y="720.60865" x="1149.56519" fill="#FFEBA2"/>
  <rect id="7b0a2fa56dd0431f82f7909089b9d745-oa-12" stroke="#2D2D2D" height="34.78261" width="147.82605" y="855.39125" x="879.99997" fill="#FFEBA2"/>
  <rect stroke="#2D2D2D" id="7b0a2fa56dd0431f82f7909089b9d745-oa-13" height="34.78261" width="189.13039" y="998.86951" x="879.99997" fill="#FFEBA2"/>
  <rect stroke="#2D2D2D" id="7b0a2fa56dd0431f82f7909089b9d745-oa-14" height="34.78261" width="365.21737" y="924.95646" x="964.78256" fill="#FFEBA2"/>
  <rect stroke="#2D2D2D" id="7b0a2fa56dd0431f82f7909089b9d745-oa-15" height="34.78261" width="156.52171" y="859.73908" x="1432.17389" fill="#FFEBA2"/>
  <rect stroke="#2D2D2D" id="7b0a2fa56dd0431f82f7909089b9d745-oa-16" height="34.78261" width="365.21737" y="974.95644" x="1427.82606" fill="#FFEBA2"/>
  <g id="7b0a2fa56dd0431f82f7909089b9d745-oa-17">
   <rect stroke="#2D2D2D" height="34.78261" width="160.86954" y="1068.43475" x="960.43475" fill="#FFEBA2"/>
   <rect stroke="#2D2D2D" height="34.78261" width="165.21735" y="931.47823" x="1514.78255" fill="#FFEBA2"/>
   <rect stroke="#2D2D2D" height="34.78261" width="260.86952" y="1042.34779" x="1460.43473" fill="#FFEBA2"/>
  </g>
  <g id="7b0a2fa56dd0431f82f7909089b9d745-oa-18">
   <rect stroke="#2D2D2D" height="34.78261" width="178.26084" y="1144.52168" x="1093.04343" fill="#FFEBA2"/>
   <rect stroke="#2D2D2D" height="34.78261" width="230.43475" y="1144.52169" x="1771.30426" fill="#FFEBA2"/>
  </g>
  <rect stroke="#2D2D2D" id="7b0a2fa56dd0431f82f7909089b9d745-oa-19" height="34.78261" width="143.47825" y="355.39122" x="127.82607" fill="#FFEBA2"/>
  <rect id="7b0a2fa56dd0431f82f7909089b9d745-oa-20" stroke="#2D2D2D" height="34.78261" width="143.47825" y="253.21734" x="569.1304" fill="#FFEBA2"/>
  <rect stroke="#2D2D2D" id="7b0a2fa56dd0431f82f7909089b9d745-oa-21" height="34.78261" width="121.73912" y="1016.26084" x="134.3478" fill="#FFEBA2"/>
  <g id="7b0a2fa56dd0431f82f7909089b9d745-oa-22">
   <rect stroke="#2D2D2D" height="34.78261" width="239.13041" y="1118.4347" x="569.13042" fill="#FFEBA2"/>
   <rect stroke="#2D2D2D" height="34.78261" width="143.47825" y="1157.56518" x="601.73909" fill="#FFEBA2"/>
  </g>
  <rect stroke="#2D2D2D" id="7b0a2fa56dd0431f82f7909089b9d745-oa-23" height="34.78261" width="173.91304" y="561.91299" x="49.5652" fill="#FFEBA2"/>
  <rect stroke="#2D2D2D" id="7b0a2fa56dd0431f82f7909089b9d745-oa-24" height="71.73915" width="267.3913" y="853.21731" x="566.95648" fill="#FFEBA2"/>
  <rect stroke="#2D2D2D" id="7b0a2fa56dd0431f82f7909089b9d745-oa-25" height="67.39126" width="269.56522" y="994.52167" x="508.26084" fill="#FFEBA2"/>
 </g>
</svg>