<svg xmlns="http://www.w3.org/2000/svg" width="1448" height="695">
 <!-- Created with Image Occlusion Enhanced -->
 <g>
  <title>Labels</title>
 </g>
 <g>
  <title>Masks</title>
  <g id="874c315a36e645ac888893094283ce12-oa-1">
   <rect height="39.13044" width="84.34783" y="81.52173" x="298.95657" stroke="#2D2D2D" fill="#FFEBA2"/>
   <rect height="32.17391" width="107.82609" y="90.21738" x="578.95658" stroke="#2D2D2D" fill="#FFEBA2"/>
  </g>
  <g id="874c315a36e645ac888893094283ce12-oa-2">
   <g>
    <rect height="34.78261" width="66.08696" y="333.69565" x="1106.78268" stroke="#2D2D2D" fill="#FFEBA2"/>
    <g>
     <rect height="26.95652" width="57.39131" y="241.52174" x="1106.78268" stroke="#2D2D2D" fill="#FFEBA2"/>
     <rect height="36.52174" width="65.21739" y="178.91304" x="1332.00008" stroke="#2D2D2D" fill="#FFEBA2"/>
     <rect height="31.30435" width="67.82609" y="252.82608" x="1334.60878" stroke="#2D2D2D" fill="#FFEBA2"/>
    </g>
   </g>
   <g>
    <g>
     <rect height="37.39131" width="262.6087" y="171.95652" x="211.13048" stroke="#2D2D2D" fill="#FFEBA2"/>
     <rect height="15.65217" width="250.43479" y="183.26086" x="505.04354" stroke="#2D2D2D" fill="#FFEBA2"/>
    </g>
    <rect height="22.6087" width="140.86957" y="185" x="830.26094" stroke="#2D2D2D" fill="#FFEBA2"/>
   </g>
  </g>
  <g id="874c315a36e645ac888893094283ce12-oa-3">
   <rect height="37.39131" width="202.6087" y="285.86956" x="245.04353" stroke="#2D2D2D" fill="#FFEBA2"/>
   <rect height="17.3913" width="128.69566" y="264.13043" x="493.73919" stroke="#2D2D2D" fill="#FFEBA2"/>
  </g>
  <g id="874c315a36e645ac888893094283ce12-oa-4">
   <rect height="100" width="166.08696" y="361.52174" x="258.08701" stroke="#2D2D2D" fill="#FFEBA2"/>
   <rect height="49.56522" width="272.17392" y="383.26087" x="490.26093" stroke="#2D2D2D" fill="#FFEBA2"/>
  </g>
  <g id="874c315a36e645ac888893094283ce12-oa-5">
   <rect height="19.13044" width="90.43479" y="589.34783" x="292.86962" stroke="#2D2D2D" fill="#FFEBA2"/>
   <rect height="21.73913" width="114.78261" y="591.08696" x="570.26093" stroke="#2D2D2D" fill="#FFEBA2"/>
  </g>
  <g id="874c315a36e645ac888893094283ce12-oa-6">
   <rect height="27.82609" width="133.91305" y="498.04348" x="489.39136" stroke="#2D2D2D" fill="#FFEBA2"/>
   <rect height="48.69565" width="86.08696" y="489.34783" x="780.69572" stroke="#2D2D2D" fill="#FFEBA2"/>
  </g>
  <g id="874c315a36e645ac888893094283ce12-oa-7">
   <rect height="62.6087" width="141.73913" y="625.00001" x="578.08702" stroke="#2D2D2D" fill="#FFEBA2"/>
   <rect height="40.86957" width="104.34783" y="624.13044" x="304.17396" stroke="#2D2D2D" fill="#FFEBA2"/>
  </g>
 </g>
</svg>