<svg height="964.0000000000001" width="1438" xmlns="http://www.w3.org/2000/svg">
 <!-- Created with Image Occlusion Enhanced -->
 <g>
  <title>Labels</title>
  <rect fill="#ffff00" height="107.93651" id="svg_18" stroke="#2D2D2D" width="1428.57142" x="1.68254" y="834.41268"/>
 </g>
 <g>
  <title>Masks</title>
  <rect fill="#ffff00" height="39.68254" id="8b59aa033969490dae502d8c20b12d2e-oa-1" stroke="#2D2D2D" width="803.1746" x="541.36507" y="85.20633"/>
  <rect fill="#ffff00" height="36.50794" id="8b59aa033969490dae502d8c20b12d2e-oa-2" stroke="#2D2D2D" width="253.96825" x="1061.99999" y="148.6984"/>
  <rect fill="#ffff00" height="38.09524" id="8b59aa033969490dae502d8c20b12d2e-oa-3" stroke="#2D2D2D" width="168.25397" x="615.96825" y="148.6984"/>
  <rect fill="#ffff00" height="47.61905" id="8b59aa033969490dae502d8c20b12d2e-oa-4" stroke="#2D2D2D" width="107.93651" x="658.82539" y="210.60316"/>
  <rect fill="#ffff00" height="55.55556" id="8b59aa033969490dae502d8c20b12d2e-oa-5" stroke="#2D2D2D" width="55.55556" x="1168.3492" y="212.19046"/>
  <g id="8b59aa033969490dae502d8c20b12d2e-oa-6">
   <rect fill="#ffff00" height="34.92063" stroke="#2D2D2D" width="392.06349" x="993.74603" y="277.26982"/>
   <rect fill="#ffff00" height="73.01587" stroke="#2D2D2D" width="328.57143" x="1038.19047" y="332.82538"/>
  </g>
  <rect fill="#ffff00" height="84.12698" id="8b59aa033969490dae502d8c20b12d2e-oa-7" stroke="#2D2D2D" width="409.52381" x="509.61904" y="280.44443"/>
  <rect fill="#ffff00" height="36.50794" id="8b59aa033969490dae502d8c20b12d2e-oa-8" stroke="#2D2D2D" width="268.25397" x="579.46031" y="497.90474"/>
  <rect fill="#ffff00" height="38.09524" id="8b59aa033969490dae502d8c20b12d2e-oa-9" stroke="#2D2D2D" width="282.53968" x="1052.47618" y="493.14284"/>
  <rect fill="#ffff00" height="44.44444" id="8b59aa033969490dae502d8c20b12d2e-oa-10" stroke="#2D2D2D" width="411.11111" x="522.31746" y="612.19046"/>
  <rect fill="#ffff00" height="74.60317" id="8b59aa033969490dae502d8c20b12d2e-oa-11" stroke="#2D2D2D" width="371.42857" x="1027.07936" y="612.19046"/>
  <rect fill="#ffff00" height="38.09524" id="8b59aa033969490dae502d8c20b12d2e-oa-12" stroke="#2D2D2D" width="342.85714" x="544.53968" y="713.77776"/>
  <rect fill="#ffff00" height="41.26984" id="8b59aa033969490dae502d8c20b12d2e-oa-13" stroke="#2D2D2D" width="398.4127" x="996.92063" y="713.77776"/>
  <rect fill="#ffff00" height="26.98413" id="8b59aa033969490dae502d8c20b12d2e-oa-14" stroke="#2D2D2D" width="157.14286" x="627.07936" y="785.20633"/>
  <rect fill="#ffff00" height="38.09524" id="8b59aa033969490dae502d8c20b12d2e-oa-15" stroke="#2D2D2D" width="212.69841" x="1071.5238" y="778.85712"/>
 </g>
</svg>