<svg xmlns="http://www.w3.org/2000/svg" width="844" height="1014">
 <!-- Created with Image Occlusion Enhanced -->
 <g>
  <title>Labels</title>
 </g>
 <g>
  <title>Masks</title>
  <rect stroke="#2D2D2D" id="a236dfe3dccd4141bda52dd4a86ba181-ao-1" height="24" width="255.99999" y="58" x="532" fill="#FFEBA2"/>
  <rect stroke="#2D2D2D" id="a236dfe3dccd4141bda52dd4a86ba181-ao-2" height="24" width="287.99999" y="91" x="533" fill="#FFEBA2"/>
  
  <rect stroke="#2D2D2D" id="a236dfe3dccd4141bda52dd4a86ba181-ao-4" height="24" width="195.99999" y="148" x="531" fill="#FFEBA2"/>
  <rect stroke="#2D2D2D" id="a236dfe3dccd4141bda52dd4a86ba181-ao-5" height="24" width="230.99999" y="179" x="597" fill="#FFEBA2"/>
  <rect stroke="#2D2D2D" id="a236dfe3dccd4141bda52dd4a86ba181-ao-6" height="24" width="217" y="209" x="603" fill="#FFEBA2"/>
  <rect stroke="#2D2D2D" id="a236dfe3dccd4141bda52dd4a86ba181-ao-7" height="24" width="163" y="253" x="454" fill="#FFEBA2"/>
  <rect stroke="#2D2D2D" id="a236dfe3dccd4141bda52dd4a86ba181-ao-8" height="24" width="168" y="291" x="572" fill="#FFEBA2"/>
  <rect stroke="#2D2D2D" id="a236dfe3dccd4141bda52dd4a86ba181-ao-9" height="24" width="184" y="387" x="586" fill="#FFEBA2"/>
  <rect stroke="#2D2D2D" id="a236dfe3dccd4141bda52dd4a86ba181-ao-10" height="52" width="255.99999" y="417" x="537" fill="#FFEBA2"/>
  <rect stroke="#2D2D2D" id="a236dfe3dccd4141bda52dd4a86ba181-ao-11" height="24" width="119" y="475" x="508" fill="#ffaa56"/>
  <rect stroke="#2D2D2D" id="a236dfe3dccd4141bda52dd4a86ba181-ao-12" height="24" width="240.00001" y="507" x="532" fill="#ffaa56"/>
  <rect stroke="#2D2D2D" id="a236dfe3dccd4141bda52dd4a86ba181-ao-13" height="24" width="156.99999" y="579" x="532" fill="#FFEBA2"/>
  <rect stroke="#2D2D2D" id="a236dfe3dccd4141bda52dd4a86ba181-ao-14" height="24" width="144" y="611" x="533" fill="#FFEBA2"/>
  <rect stroke="#2D2D2D" id="a236dfe3dccd4141bda52dd4a86ba181-ao-15" height="24" width="172.99999" y="642" x="545" fill="#FFEBA2"/>
  <text style="cursor: move;" transform="matrix(0.8024676263175934,0,0,1,112.29048812608406,0) " xml:space="preserve" text-anchor="middle" font-family="'Arial', 'Helvetica LT Std', Arial, sans-serif" font-size="24" id="a236dfe3dccd4141bda52dd4a86ba181-ao-16" y="437" x="247" stroke-linecap="null" stroke-linejoin="null" stroke-dasharray="null" stroke-width="0" fill="#ff0000">**De eleccion en &gt;38 años</text>
 </g>
</svg>