<svg xmlns="http://www.w3.org/2000/svg" width="1119" height="493">
 <!-- Created with Image Occlusion Enhanced -->
 <g>
  <title>Labels</title>
 </g>
 <g>
  <title>Masks</title>
  <g id="b7877fe95f074ecfa50304f2e90bc550-oa-1">
   <rect height="25" width="190.38461" y="185.84614" x="322.02563" stroke="#2D2D2D" fill="#FFEBA2"/>
   <rect height="24.35897" width="167.94872" y="181.99998" x="609.20511" stroke="#2D2D2D" fill="#FFEBA2"/>
   <rect height="21.79487" width="150.64102" y="184.56409" x="902.15383" stroke="#2D2D2D" fill="#FFEBA2"/>
  </g>
  <g id="b7877fe95f074ecfa50304f2e90bc550-oa-2">
   <rect height="31.41026" width="101.28205" y="136.48716" x="380.35896" stroke="#2D2D2D" fill="#FFEBA2"/>
   <rect height="27.5641" width="91.02564" y="134.56409" x="655.99999" stroke="#2D2D2D" fill="#FFEBA2"/>
   <rect height="24.35897" width="96.15385" y="141.61537" x="930.35896" stroke="#2D2D2D" fill="#FFEBA2"/>
  </g>
  <g id="b7877fe95f074ecfa50304f2e90bc550-oa-3">
   <rect height="21.79487" width="105.1282" y="229.43588" x="364.33332" stroke="#2D2D2D" fill="#FFEBA2"/>
   <rect height="26.92308" width="108.33333" y="225.58973" x="645.74357" stroke="#2D2D2D" fill="#FFEBA2"/>
   <rect height="27.5641" width="101.92308" y="228.15383" x="924.58973" stroke="#2D2D2D" fill="#FFEBA2"/>
  </g>
  <g id="b7877fe95f074ecfa50304f2e90bc550-oa-4">
   <rect height="24.35897" width="171.15384" y="422.3846" x="781.64101" stroke-linecap="null" stroke-linejoin="null" stroke-dasharray="null" stroke="#2D2D2D" fill="#FFEBA2"/>
   <rect height="30.1282" width="167.30769" y="455.0769" x="778.43588" stroke-linecap="null" stroke-linejoin="null" stroke-dasharray="null" stroke="#2D2D2D" fill="#FFEBA2"/>
   <rect height="39.10256" width="132.69231" y="424.9487" x="341.89742" stroke-linecap="null" stroke-linejoin="null" stroke-dasharray="null" stroke="#2D2D2D" fill="#FFEBA2"/>
  </g>
  <g id="b7877fe95f074ecfa50304f2e90bc550-oa-5">
   <rect height="30.76923" width="127.5641" y="269.17947" x="351.51281" stroke-linecap="null" stroke-linejoin="null" stroke-dasharray="null" stroke="#2D2D2D" fill="#FFEBA2"/>
   <rect height="32.05128" width="79.48718" y="264.69229" x="659.20511" stroke-linecap="null" stroke-linejoin="null" stroke-dasharray="null" stroke="#2D2D2D" fill="#FFEBA2"/>
   <rect height="33.33333" width="83.97436" y="272.3846" x="929.71793" stroke-linecap="null" stroke-linejoin="null" stroke-dasharray="null" stroke="#2D2D2D" fill="#FFEBA2"/>
  </g>
 </g>
</svg>