<svg xmlns="http://www.w3.org/2000/svg" width="1150" height="987">
 <!-- Created with Image Occlusion Enhanced -->
 <g>
  <title>Labels</title>
 </g>
 <g>
  <title>Masks</title>
  <g id="df82a0ee305943c690622be5160ba587-oa-1">
   <rect height="39.43662" width="114.08451" y="66.52109" x="258.4507" stroke="#2D2D2D" fill="#FFEBA2"/>
   <rect height="53.52113" width="177.46479" y="52.43658" x="442.95775" stroke="#2D2D2D" fill="#FFEBA2"/>
   <rect height="47.88732" width="167.60563" y="56.66193" x="675.35211" stroke="#2D2D2D" fill="#FFEBA2"/>
   <rect height="77.46479" width="171.83099" y="52.43658" x="917.60563" stroke="#2D2D2D" fill="#FFEBA2"/>
  </g>
  <g id="df82a0ee305943c690622be5160ba587-oa-2">
   <rect height="26.76056" width="129.57746" y="748.21123" x="247.1831" stroke="#2D2D2D" fill="#FFEBA2"/>
   <rect height="36.61972" width="163.38028" y="745.39432" x="450" stroke="#2D2D2D" fill="#FFEBA2"/>
   <rect height="38.02817" width="146.47887" y="742.57742" x="680.98592" stroke="#2D2D2D" fill="#FFEBA2"/>
   <rect height="29.57746" width="159.15493" y="748.21123" x="926.05634" stroke="#2D2D2D" fill="#FFEBA2"/>
   <rect height="29.57746" width="233.80282" y="782.01404" x="885.21127" stroke="#2D2D2D" fill="#FFEBA2"/>
  </g>
  <g id="df82a0ee305943c690622be5160ba587-oa-3">
   <rect height="59.15493" width="130.98592" y="838.35207" x="244.3662" stroke="#2D2D2D" fill="#FFEBA2"/>
   <rect height="39.43662" width="183.09859" y="824.26756" x="454.22535" stroke="#2D2D2D" fill="#FFEBA2"/>
   <rect height="46.47887" width="138.02817" y="825.67602" x="689.43662" stroke="#2D2D2D" fill="#FFEBA2"/>
   <rect height="36.61972" width="121.12676" y="898.91545" x="942.95775" stroke="#2D2D2D" fill="#FFEBA2"/>
  </g>
  <g id="df82a0ee305943c690622be5160ba587-oa-4">
   <rect height="64.78873" width="246.47887" y="143.98587" x="882.39437" stroke-linecap="null" stroke-linejoin="null" stroke-dasharray="null" stroke="#2D2D2D" fill="#FFEBA2"/>
   <rect height="28.16901" width="132.39437" y="220.04221" x="934.50704" stroke-linecap="null" stroke-linejoin="null" stroke-dasharray="null" stroke="#2D2D2D" fill="#FFEBA2"/>
   <rect height="26.76056" width="149.29577" y="259.47883" x="934.50704" stroke-linecap="null" stroke-linejoin="null" stroke-dasharray="null" stroke="#2D2D2D" fill="#FFEBA2"/>
  </g>
  <g id="df82a0ee305943c690622be5160ba587-oa-5">
   <rect height="32.39437" width="139.43662" y="146.80277" x="250" stroke="#2D2D2D" fill="#FFEBA2"/>
   <rect height="71.83099" width="185.91549" y="143.98587" x="447.1831" stroke-linecap="null" stroke-linejoin="null" stroke-dasharray="null" stroke="#2D2D2D" fill="#FFEBA2"/>
   <rect height="30.98592" width="136.61972" y="148.21123" x="682.39437" stroke-linecap="null" stroke-linejoin="null" stroke-dasharray="null" stroke="#2D2D2D" fill="#FFEBA2"/>
  </g>
  <rect id="df82a0ee305943c690622be5160ba587-oa-6" height="32.39437" width="169.01408" y="452.43658" x="926.05634" stroke-linecap="null" stroke-linejoin="null" stroke-dasharray="null" stroke="#2D2D2D" fill="#FFEBA2"/>
  <rect id="df82a0ee305943c690622be5160ba587-oa-7" height="26.76056" width="247.88732" y="493.28165" x="883.80282" stroke-linecap="null" stroke-linejoin="null" stroke-dasharray="null" stroke="#2D2D2D" fill="#FFEBA2"/>
  <rect id="df82a0ee305943c690622be5160ba587-oa-8" height="21.12676" width="192.95775" y="422.85911" x="904.92958" stroke-linecap="null" stroke-linejoin="null" stroke-dasharray="null" stroke="#2D2D2D" fill="#FFEBA2"/>
  <g id="df82a0ee305943c690622be5160ba587-oa-9">
   <rect height="42.25352" width="140.84507" y="422.85911" x="241.5493" stroke-linecap="null" stroke-linejoin="null" stroke-dasharray="null" stroke="#2D2D2D" fill="#FFEBA2"/>
   <rect height="52.11268" width="181.69014" y="417.22531" x="441.5493" stroke-linecap="null" stroke-linejoin="null" stroke-dasharray="null" stroke="#2D2D2D" fill="#FFEBA2"/>
   <rect height="50.70423" width="135.21127" y="410.18306" x="675.35211" stroke-linecap="null" stroke-linejoin="null" stroke-dasharray="null" stroke="#2D2D2D" fill="#FFEBA2"/>
  </g>
 </g>
</svg>