<svg height="877.0000000000001" width="1891" xmlns="http://www.w3.org/2000/svg">
 <!-- Created with Image Occlusion Enhanced -->
 <g>
  <title>Labels</title>
 </g>
 <g>
  <title>Masks</title>
  <g id="e49c8d9c46d947b38735ac92dc4885fd-oa-1">
   <rect fill="#ffff00" height="42.02898" stroke="#2D2D2D" width="146.37681" x="1030.73904" y="205.60869"/>
   <rect fill="#ffff00" height="50.72464" stroke="#2D2D2D" width="143.47826" x="1027.84049" y="283.86956"/>
  </g>
  <rect fill="#ffff00" height="71.01449" id="e49c8d9c46d947b38735ac92dc4885fd-oa-2" stroke="#2D2D2D" width="285.50724" x="962.6231" y="356.33333"/>
  <g id="e49c8d9c46d947b38735ac92dc4885fd-oa-3">
   <rect fill="#ffff00" height="34.78261" stroke="#2D2D2D" width="97.10145" x="1675.66656" y="360.68115"/>
   <rect fill="#ffff00" height="39.13043" stroke="#2D2D2D" width="134.7826" x="719.14485" y="356.33333"/>
  </g>
  <g id="e49c8d9c46d947b38735ac92dc4885fd-oa-4">
   <rect fill="#ffff00" height="104.34782" stroke="#2D2D2D" width="275.36231" x="1597.40569" y="459.23187"/>
   <rect fill="#ffff00" height="150.72463" stroke="#2D2D2D" width="295.65217" x="640.88398" y="453.43477"/>
  </g>
  <rect fill="#ffff00" height="46.37681" id="e49c8d9c46d947b38735ac92dc4885fd-oa-5" stroke="#2D2D2D" width="257.97101" x="1610.44917" y="783.86954"/>
  <rect fill="#ffff00" height="40.57971" id="e49c8d9c46d947b38735ac92dc4885fd-oa-6" stroke="#2D2D2D" width="257.97101" x="665.52166" y="782.42027"/>
  <rect fill="#ffff00" height="57.97101" id="e49c8d9c46d947b38735ac92dc4885fd-oa-7" stroke="#2D2D2D" width="185.50724" x="1014.79701" y="702.71013"/>
  <rect fill="#ffff00" height="42.02898" id="e49c8d9c46d947b38735ac92dc4885fd-oa-8" stroke="#2D2D2D" width="101.44927" x="1090.15933" y="631.69564"/>
  <g id="e49c8d9c46d947b38735ac92dc4885fd-oa-9">
   <rect fill="#ffff00" height="28.98551" stroke="#2D2D2D" width="49.27536" x="1395.95642" y="638.94201"/>
   <rect fill="#ffff00" height="17.3913" stroke="#2D2D2D" width="49.27536" x="1710.44917" y="640.39129"/>
   <rect fill="#ffff00" height="27.53623" stroke="#2D2D2D" width="65.21739" x="764.07238" y="634.59419"/>
  </g>
  <rect fill="#ffff00" height="34.78261" id="e49c8d9c46d947b38735ac92dc4885fd-oa-10" stroke="#2D2D2D" width="249.27535" x="980.01441" y="451.9855"/>
  <rect fill="#ffff00" height="28.98551" id="e49c8d9c46d947b38735ac92dc4885fd-oa-11" stroke="#2D2D2D" width="163.76811" x="397.40573" y="783.86954"/>
  <rect fill="#ffff00" height="30.43478" id="e49c8d9c46d947b38735ac92dc4885fd-oa-12" stroke="#2D2D2D" width="255.07246" x="342.33327" y="462.13042"/>
  <g id="e49c8d9c46d947b38735ac92dc4885fd-oa-13">
   <rect fill="#ffff00" height="37.68116" stroke="#2D2D2D" width="218.84057" x="1616.24627" y="285.31883"/>
   <rect fill="#ffff00" height="26.08696" stroke="#2D2D2D" width="121.73913" x="1664.07236" y="214.30434"/>
  </g>
  <rect fill="#ffff00" height="105.7971" id="e49c8d9c46d947b38735ac92dc4885fd-oa-14" stroke="#2D2D2D" width="271.01448" x="969.86948" y="498.36231"/>
 </g>
</svg>