<svg xmlns="http://www.w3.org/2000/svg" width="1671" height="1092">
 <!-- Created with Image Occlusion Enhanced -->
 <g>
  <title>Labels</title>
 </g>
 <g>
  <title>Masks</title>
  <g id="e9911973ae1149da8dd0c95e034e6773-oa-1">
   <rect height="36.9863" width="212.32877" y="854.57541" x="727.63022" stroke="#2D2D2D" fill="#FFEBA2"/>
   <rect height="34.24658" width="152.0548" y="899.78089" x="765.98639" stroke="#2D2D2D" fill="#FFEBA2"/>
   <rect height="35.61644" width="328.76714" y="858.685" x="1229.0001" stroke="#2D2D2D" fill="#FFEBA2"/>
   <rect height="31.50685" width="236.98631" y="901.15075" x="1256.39737" stroke="#2D2D2D" fill="#FFEBA2"/>
  </g>
  <g id="e9911973ae1149da8dd0c95e034e6773-oa-2">
   <rect stroke="#2D2D2D" height="112.32877" width="464.38358" y="950.46582" x="1142.69874" fill="#FFEBA2"/>
   <rect height="76.71233" width="452.05481" y="954.57541" x="600.23296" stroke-linecap="null" stroke-linejoin="null" stroke-dasharray="null" stroke="#2D2D2D" fill="#FFEBA2"/>
  </g>
  <g id="e9911973ae1149da8dd0c95e034e6773-oa-3">
   <rect height="36.9863" width="420.54796" y="799.78089" x="630.36995" stroke="#2D2D2D" fill="#FFEBA2"/>
   <rect height="39.72603" width="310.95892" y="794.30143" x="1241.32887" stroke="#2D2D2D" fill="#FFEBA2"/>
  </g>
  <g id="e9911973ae1149da8dd0c95e034e6773-oa-4">
   <rect height="42.46575" width="287.67124" y="672.38362" x="704.34255" stroke="#2D2D2D" fill="#FFEBA2"/>
   <rect height="36.9863" width="161.64384" y="732.6576" x="749.54803" stroke="#2D2D2D" fill="#FFEBA2"/>
   <rect height="38.35617" width="184.93151" y="677.86307" x="1301.60285" stroke="#2D2D2D" fill="#FFEBA2"/>
   <rect height="41.09589" width="105.47946" y="732.6576" x="1331.73983" stroke="#2D2D2D" fill="#FFEBA2"/>
  </g>
  <g id="e9911973ae1149da8dd0c95e034e6773-oa-5">
   <rect height="35.61644" width="195.89042" y="513.47951" x="739.95899" stroke="#2D2D2D" fill="#FFEBA2"/>
   <rect height="36.9863" width="295.89042" y="520.32882" x="1268.72613" stroke="#2D2D2D" fill="#FFEBA2"/>
   <rect height="35.61644" width="513.69865" y="588.82197" x="1131.73983" stroke="#2D2D2D" fill="#FFEBA2"/>
   <rect height="36.9863" width="508.2192" y="586.08225" x="578.31515" stroke="#2D2D2D" fill="#FFEBA2"/>
  </g>
  <g id="e9911973ae1149da8dd0c95e034e6773-oa-6">
   <rect height="30.13699" width="408.21919" y="431.28772" x="1197.49325" stroke="#2D2D2D" fill="#FFEBA2"/>
   <rect height="39.72603" width="446.57536" y="469.64389" x="1174.20558" stroke="#2D2D2D" fill="#FFEBA2"/>
   <rect height="0" width="2.73973" y="425.80827" x="956.39735" stroke="#2D2D2D" fill="#FFEBA2"/>
   <rect height="32.87671" width="160.27398" y="425.80827" x="798.8631" stroke="#2D2D2D" fill="#FFEBA2"/>
   <rect height="34.24658" width="102.73973" y="468.27402" x="863.24667" stroke="#2D2D2D" fill="#FFEBA2"/>
  </g>
  <g id="e9911973ae1149da8dd0c95e034e6773-oa-7">
   <rect height="41.09589" width="338.35618" y="302.52059" x="1209.82202" stroke="#2D2D2D" fill="#FFEBA2"/>
   <rect height="35.61644" width="324.65755" y="302.52059" x="667.35625" stroke="#2D2D2D" fill="#FFEBA2"/>
   <rect height="52.0548" width="264.38357" y="351.83566" x="702.97269" stroke="#2D2D2D" fill="#FFEBA2"/>
   <rect height="43.83562" width="209.58905" y="362.79457" x="1285.16449" stroke="#2D2D2D" fill="#FFEBA2"/>
  </g>
  <g id="e9911973ae1149da8dd0c95e034e6773-oa-8">
   <rect height="69.86302" width="510.95892" y="169.64388" x="578.31515" stroke="#2D2D2D" fill="#FFEBA2"/>
   <rect height="32.87671" width="471.23289" y="253.20552" x="601.60282" stroke="#2D2D2D" fill="#FFEBA2"/>
   <rect height="35.61644" width="402.73974" y="171.01374" x="1193.38366" stroke="#2D2D2D" fill="#FFEBA2"/>
  </g>
  <g id="e9911973ae1149da8dd0c95e034e6773-oa-9">
   <rect height="41.09589" width="242.46576" y="73.75346" x="716.67132" stroke="#2D2D2D" fill="#FFEBA2"/>
   <rect height="68.49315" width="475.34248" y="72.3836" x="1156.39736" stroke="#2D2D2D" fill="#FFEBA2"/>
  </g>
 </g>
</svg>