<svg xmlns="http://www.w3.org/2000/svg" width="834" height="1312">
 <!-- Created with Image Occlusion Enhanced -->
 <g>
  <title>Labels</title>
 </g>
 <g>
  <title>Masks</title>
  <g id="ec9d34f11fe741868ec0338d5f8f84dc-ao-1">
   <rect stroke="#2D2D2D" height="57.8125" width="142.18751" y="1139.56251" x="188.875" fill="#FFEBA2"/>
   <rect stroke="#2D2D2D" height="57.8125" width="142.18751" y="1139.56251" x="357.625" fill="#FFEBA2"/>
   <rect stroke="#2D2D2D" height="57.8125" width="142.18751" y="1139.56251" x="693.5625" fill="#FFEBA2"/>
  </g>
  
  <g id="ec9d34f11fe741868ec0338d5f8f84dc-ao-3">
   <rect stroke="#2D2D2D" height="54.6875" width="139.0625" y="475.50001" x="357.625" fill="#FFEBA2"/>
   <rect stroke="#2D2D2D" height="25" width="139.0625" y="633.31251" x="360.75" fill="#FFEBA2"/>
  </g>
  <g id="ec9d34f11fe741868ec0338d5f8f84dc-ao-4">
   <rect stroke="#2D2D2D" height="54.6875" width="139.0625" y="373.93751" x="193.5625" fill="#FFEBA2"/>
   <rect stroke="#2D2D2D" height="54.6875" width="139.0625" y="370.81251" x="356.0625" fill="#FFEBA2"/>
   <rect stroke="#2D2D2D" height="54.6875" width="139.0625" y="375.50001" x="543.5625" fill="#FFEBA2"/>
   <rect stroke="#2D2D2D" height="87.5" width="112.5" y="373.93752" x="707.625" fill="#FFEBA2"/>
  </g>
  <g id="ec9d34f11fe741868ec0338d5f8f84dc-ao-5">
   <rect height="54.6875" width="139.0625" y="295.81251" x="195.125" stroke="#2D2D2D" fill="#FFEBA2"/>
   <rect stroke="#2D2D2D" height="54.6875" width="160.93749" y="294.25001" x="356.0625" fill="#FFEBA2"/>
   <rect stroke="#2D2D2D" height="54.6875" width="101.5625" y="295.81251" x="707.625" fill="#FFEBA2"/>
  </g>
  <g id="ec9d34f11fe741868ec0338d5f8f84dc-ao-6">
   <rect height="56.25" width="140.625" y="222.37501" x="192" stroke="#2D2D2D" fill="#FFEBA2"/>
   <rect height="48.4375" width="162.5" y="222.37501" x="359.1875" stroke="#2D2D2D" fill="#FFEBA2"/>
   <rect height="53.125" width="118.75" y="223.93751" x="704.5" stroke="#2D2D2D" fill="#FFEBA2"/>
  </g>
  <g id="ec9d34f11fe741868ec0338d5f8f84dc-ao-7">
   <rect height="81.25" width="145.3125" y="116.12501" x="190.4375" stroke="#2D2D2D" fill="#FFEBA2"/>
   <rect height="93.75" width="170.3125" y="109.87501" x="357.625" stroke="#2D2D2D" fill="#FFEBA2"/>
   <rect height="93.75" width="118.75" y="111.43751" x="707.625" stroke="#2D2D2D" fill="#FFEBA2"/>
  </g>
  <g id="ec9d34f11fe741868ec0338d5f8f84dc-ao-8">
   <rect height="84.375" width="131.25" y="8.31251" x="201.375" stroke-linecap="null" stroke-linejoin="null" stroke-dasharray="null" stroke="#2D2D2D" fill="#FFEBA2"/>
   <rect height="84.375" width="131.25" y="9.87501" x="377.9375" stroke-linecap="null" stroke-linejoin="null" stroke-dasharray="null" stroke="#2D2D2D" fill="#FFEBA2"/>
   <rect height="84.375" width="131.25" y="9.87501" x="548.25" stroke-linecap="null" stroke-linejoin="null" stroke-dasharray="null" stroke="#2D2D2D" fill="#FFEBA2"/>
   <rect height="84.375" width="131.25" y="13.00001" x="698.25" stroke-linecap="null" stroke-linejoin="null" stroke-dasharray="null" stroke="#2D2D2D" fill="#FFEBA2"/>
  </g>
 </g>
</svg>